<?xml version="1.0" encoding="iso-8859-1"?>
<!-- Generator: Adobe Illustrator 16.0.0, SVG Export Plug-In . SVG Version: 6.00 Build 0)  -->
<!DOCTYPE svg PUBLIC "-//W3C//DTD SVG 1.1//EN" "http://www.w3.org/Graphics/SVG/1.1/DTD/svg11.dtd">
<svg version="1.1" id="Capa_1" xmlns="http://www.w3.org/2000/svg" xmlns:xlink="http://www.w3.org/1999/xlink" x="0px" y="0px"
	 width="234.287px" height="234.288px" viewBox="0 0 234.287 234.288" style="enable-background:new 0 0 234.287 234.288;"
	 xml:space="preserve">
<g>
	<g id="_x36_8_35_">
		<g>
			<path d="M79.8,131.154c-0.348,0.914-0.805,1.706-1.371,2.366c-0.564,0.671-1.25,1.188-2.059,1.564
				c-0.812,0.376-1.805,0.559-2.966,0.559c-1.627,0-2.973-0.355-4.055-1.057c-1.082-0.711-1.945-1.646-2.59-2.812
				c-0.645-1.158-1.112-2.479-1.404-3.931c-0.297-1.452-0.437-2.936-0.437-4.428c0-1.504,0.14-2.977,0.437-4.434
				c0.292-1.46,0.759-2.772,1.404-3.93c0.645-1.17,1.508-2.102,2.59-2.813c1.082-0.714,2.433-1.057,4.055-1.057
				c1.409,0,2.57,0.267,3.463,0.8c0.894,0.546,1.612,1.171,2.153,1.879c0.541,0.711,0.917,1.419,1.123,2.153
				c0.208,0.721,0.355,1.3,0.439,1.714h13.353c-0.584-5.614-2.549-9.95-5.903-13.01c-3.349-3.057-8.1-4.611-14.251-4.654
				c-3.453,0-6.568,0.559-9.328,1.686c-2.768,1.117-5.139,2.704-7.114,4.743c-1.976,2.036-3.494,4.486-4.555,7.363
				c-1.061,2.864-1.597,6.056-1.597,9.549c0,3.28,0.505,6.358,1.498,9.201c0.998,2.854,2.471,5.312,4.405,7.394
				s4.289,3.728,7.076,4.937c2.788,1.198,5.99,1.808,9.615,1.808c3.245,0,6.134-0.549,8.673-1.625
				c2.531-1.087,4.664-2.509,6.391-4.275c1.726-1.768,3.037-3.758,3.93-5.962c0.894-2.194,1.348-4.428,1.348-6.673H80.638
				C80.435,129.255,80.161,130.245,79.8,131.154z"/>
			<path d="M133.343,122.572c-1.193-0.975-2.529-1.777-4.032-2.406c-1.493-0.617-3.037-1.158-4.613-1.615
				c-1.582-0.416-3.131-0.8-4.649-1.16c-1.523-0.353-2.887-0.731-4.088-1.127c-1.206-0.396-2.194-0.854-2.963-1.374
				c-0.77-0.521-1.181-1.17-1.216-1.96c0-0.63,0.165-1.138,0.503-1.534c0.327-0.396,0.749-0.69,1.244-0.904
				c0.502-0.203,1.038-0.355,1.627-0.437c0.586-0.084,1.102-0.119,1.559-0.119c0.708,0,1.414,0.081,2.122,0.243
				c0.706,0.17,1.351,0.457,1.935,0.874c0.582,0.374,1.028,0.853,1.34,1.44c0.317,0.576,0.406,1.29,0.279,2.122h12.981
				c-0.081-2.709-0.649-4.986-1.681-6.832c-1.04-1.849-2.422-3.354-4.118-4.499c-1.706-1.138-3.661-1.96-5.87-2.46
				c-2.206-0.498-4.514-0.754-6.926-0.754c-2.283,0-4.51,0.287-6.673,0.843s-4.078,1.442-5.741,2.653
				c-1.663,1.211-3.006,2.729-4.019,4.59c-1.018,1.846-1.528,4.06-1.528,6.64c0,2.247,0.457,4.083,1.374,5.527
				c0.914,1.432,2.089,2.625,3.524,3.56s3.057,1.686,4.873,2.244c1.81,0.559,3.583,1.098,5.329,1.595
				c1.915,0.544,3.494,1.006,4.743,1.407c1.25,0.4,2.227,0.767,2.933,1.127c0.708,0.34,1.201,0.726,1.498,1.117
				c0.292,0.396,0.437,0.889,0.437,1.473c0,0.832-0.188,1.503-0.561,2.025c-0.376,0.528-0.854,0.935-1.435,1.244
				c-0.579,0.32-1.204,0.523-1.869,0.63c-0.665,0.106-1.267,0.147-1.812,0.147c-1.29,0-2.58-0.213-3.864-0.614
				c-1.295-0.417-2.189-1.29-2.689-2.636c-0.333-0.873-0.5-1.843-0.5-2.925h-13.73c0,2.366,0.373,4.407,1.127,6.114
				c0.749,1.706,1.701,3.158,2.872,4.367c1.163,1.208,2.473,2.163,3.93,2.879c1.455,0.7,2.912,1.254,4.367,1.671
				c1.458,0.416,2.828,0.69,4.118,0.812c1.29,0.133,2.351,0.193,3.184,0.193c2.49,0,4.969-0.264,7.424-0.782
				c2.455-0.513,4.659-1.371,6.614-2.559c1.955-1.179,3.534-2.747,4.742-4.708c1.198-1.949,1.808-4.393,1.808-7.297
				c0-2.036-0.355-3.772-1.056-5.21C135.47,124.755,134.521,123.547,133.343,122.572z"/>
			<path d="M158.393,100.08c-2.28,0-4.51,0.287-6.673,0.843c-2.163,0.556-4.078,1.442-5.743,2.653
				c-1.66,1.211-3.006,2.729-4.017,4.59c-1.021,1.846-1.528,4.062-1.528,6.639c0,2.247,0.457,4.083,1.371,5.532
				c0.914,1.428,2.092,2.621,3.523,3.555c1.438,0.935,3.058,1.687,4.875,2.245c1.808,0.559,3.585,1.097,5.332,1.595
				c1.909,0.543,3.494,1.005,4.743,1.406s2.224,0.767,2.93,1.127c0.706,0.341,1.203,0.727,1.498,1.122
				c0.294,0.392,0.437,0.884,0.437,1.468c0,0.833-0.188,1.503-0.559,2.026c-0.376,0.528-0.854,0.935-1.438,1.244
				c-0.578,0.319-1.203,0.522-1.868,0.63c-0.665,0.106-1.265,0.146-1.812,0.146c-1.29,0-2.58-0.213-3.864-0.614
				c-1.295-0.416-2.189-1.29-2.687-2.636c-0.335-0.873-0.498-1.843-0.498-2.925H138.68c0,2.366,0.37,4.408,1.127,6.114
				c0.746,1.706,1.701,3.158,2.869,4.367s2.479,2.163,3.931,2.879c1.457,0.701,2.914,1.255,4.366,1.671
				c1.463,0.416,2.834,0.695,4.124,0.812c1.29,0.132,2.346,0.192,3.179,0.192c2.493,0,4.977-0.264,7.424-0.781
				c2.458-0.508,4.662-1.371,6.617-2.555c1.954-1.183,3.539-2.752,4.742-4.712c1.203-1.95,1.812-4.388,1.812-7.297
				c0-2.036-0.355-3.773-1.066-5.21c-0.705-1.433-1.65-2.646-2.833-3.616c-1.193-0.979-2.528-1.777-4.026-2.407
				c-1.498-0.621-3.037-1.162-4.616-1.619c-1.585-0.417-3.134-0.8-4.651-1.161c-1.523-0.353-2.885-0.731-4.088-1.127
				c-1.203-0.396-2.193-0.853-2.961-1.373c-0.771-0.521-1.183-1.171-1.219-1.96c0-0.627,0.163-1.137,0.503-1.534
				c0.33-0.394,0.747-0.69,1.244-0.903c0.508-0.203,1.036-0.354,1.625-0.437s1.107-0.12,1.564-0.12c0.706,0,1.411,0.082,2.122,0.244
				c0.701,0.173,1.351,0.457,1.93,0.873c0.584,0.374,1.031,0.854,1.341,1.439c0.319,0.577,0.406,1.29,0.284,2.123h12.979
				c-0.081-2.709-0.646-4.986-1.681-6.833c-1.041-1.846-2.417-3.354-4.118-4.499c-1.706-1.137-3.661-1.96-5.87-2.458
				C163.109,100.335,160.799,100.08,158.393,100.08z"/>
			<path d="M173.834,0H26.928v234.288h180.431V32.504L173.834,0z M191.76,218.683H42.528V15.6h123.268v24.75h25.958v178.333H191.76z
				"/>
		</g>
	</g>
</g>
<g>
</g>
<g>
</g>
<g>
</g>
<g>
</g>
<g>
</g>
<g>
</g>
<g>
</g>
<g>
</g>
<g>
</g>
<g>
</g>
<g>
</g>
<g>
</g>
<g>
</g>
<g>
</g>
<g>
</g>
</svg>
